<svg xmlns="http://www.w3.org/2000/svg" viewBox="0 0 400 500" preserveAspectRatio="xMidYMid slice">
  <defs>
    <radialGradient id="glow" cx="0.54" cy="0.18" r="0.85">
      <stop offset="0" stop-color="#3178c6" stop-opacity="0.55"/>
      <stop offset="0.55" stop-color="#3178c6" stop-opacity="0.12"/>
      <stop offset="1" stop-color="#3178c6" stop-opacity="0"/>
    </radialGradient>
    <pattern id="dots" width="20" height="20" patternUnits="userSpaceOnUse">
      <circle cx="2" cy="2" r="1.2" fill="#ffffff" fill-opacity="0.07"/>
    </pattern>
  </defs>
  <rect width="400" height="500" fill="#0c1424"/>
  <rect width="400" height="500" fill="url(#glow)"/>
  <rect width="400" height="500" fill="url(#dots)"/>
  <g>
    <rect x="90" y="146" width="50" height="8" rx="4" fill="#3178c6" fill-opacity="0.85"/>
    <rect x="112" y="168" width="76" height="8" rx="4" fill="#3178c6" fill-opacity="0.85"/>
    <rect x="134" y="190" width="41" height="8" rx="4" fill="#3178c6" fill-opacity="0.85"/>
    <rect x="185" y="190" width="63" height="8" rx="4" fill="#ffffff" fill-opacity="0.20"/>
    <rect x="134" y="212" width="38" height="8" rx="4" fill="#3178c6" fill-opacity="0.85"/>
    <rect x="182" y="212" width="33" height="8" rx="4" fill="#ffffff" fill-opacity="0.29"/>
    <rect x="112" y="234" width="34" height="8" rx="4" fill="#ffffff" fill-opacity="0.37"/>
    <rect x="156" y="234" width="82" height="8" rx="4" fill="#ffffff" fill-opacity="0.20"/>
    <rect x="134" y="256" width="81" height="8" rx="4" fill="#ffffff" fill-opacity="0.26"/>
    <rect x="225" y="256" width="57" height="8" rx="4" fill="#ffffff" fill-opacity="0.31"/>
    <rect x="112" y="278" width="34" height="8" rx="4" fill="#3178c6" fill-opacity="0.85"/>
    <rect x="90" y="300" width="37" height="8" rx="4" fill="#3178c6" fill-opacity="0.85"/>
    <rect x="137" y="300" width="43" height="8" rx="4" fill="#ffffff" fill-opacity="0.21"/>
  </g>
</svg>
