<svg xmlns="http://www.w3.org/2000/svg" viewBox="0 0 400 500" preserveAspectRatio="xMidYMid slice">
  <defs>
    <radialGradient id="glow" cx="0.74" cy="0.24" r="0.85">
      <stop offset="0" stop-color="#e2e8f0" stop-opacity="0.55"/>
      <stop offset="0.55" stop-color="#e2e8f0" stop-opacity="0.12"/>
      <stop offset="1" stop-color="#e2e8f0" stop-opacity="0"/>
    </radialGradient>
    <pattern id="dots" width="20" height="20" patternUnits="userSpaceOnUse">
      <circle cx="2" cy="2" r="1.2" fill="#ffffff" fill-opacity="0.07"/>
    </pattern>
  </defs>
  <rect width="400" height="500" fill="#0c1424"/>
  <rect width="400" height="500" fill="url(#glow)"/>
  <rect width="400" height="500" fill="url(#dots)"/>
  <g>
    <rect x="90" y="146" width="37" height="8" rx="4" fill="#e2e8f0" fill-opacity="0.85"/>
    <rect x="112" y="168" width="43" height="8" rx="4" fill="#e2e8f0" fill-opacity="0.85"/>
    <rect x="134" y="190" width="61" height="8" rx="4" fill="#e2e8f0" fill-opacity="0.85"/>
    <rect x="205" y="190" width="81" height="8" rx="4" fill="#ffffff" fill-opacity="0.28"/>
    <rect x="134" y="212" width="51" height="8" rx="4" fill="#e2e8f0" fill-opacity="0.85"/>
    <rect x="112" y="234" width="39" height="8" rx="4" fill="#e2e8f0" fill-opacity="0.85"/>
    <rect x="161" y="234" width="31" height="8" rx="4" fill="#ffffff" fill-opacity="0.34"/>
    <rect x="134" y="256" width="42" height="8" rx="4" fill="#e2e8f0" fill-opacity="0.85"/>
    <rect x="112" y="278" width="59" height="8" rx="4" fill="#e2e8f0" fill-opacity="0.85"/>
    <rect x="181" y="278" width="68" height="8" rx="4" fill="#ffffff" fill-opacity="0.25"/>
    <rect x="90" y="300" width="26" height="8" rx="4" fill="#ffffff" fill-opacity="0.26"/>
    <rect x="126" y="300" width="75" height="8" rx="4" fill="#ffffff" fill-opacity="0.20"/>
    <rect x="211" y="300" width="70" height="8" rx="4" fill="#ffffff" fill-opacity="0.31"/>
  </g>
</svg>
